<?xml version="1.0" encoding="utf-8" standalone="no"?>
<!DOCTYPE svg PUBLIC "-//W3C//DTD SVG 1.1//EN"
  "http://www.w3.org/Graphics/SVG/1.1/DTD/svg11.dtd">
<svg xmlns:xlink="http://www.w3.org/1999/xlink" width="720pt" height="576pt" viewBox="0 0 720 576" xmlns="http://www.w3.org/2000/svg" version="1.1">
 <metadata>
  <rdf:RDF xmlns:dc="http://purl.org/dc/elements/1.1/" xmlns:cc="http://creativecommons.org/ns#" xmlns:rdf="http://www.w3.org/1999/02/22-rdf-syntax-ns#">
   <cc:Work>
    <dc:type rdf:resource="http://purl.org/dc/dcmitype/StillImage"/>
    <dc:date>2025-06-25T15:52:02.914092</dc:date>
    <dc:format>image/svg+xml</dc:format>
    <dc:creator>
     <cc:Agent>
      <dc:title>Matplotlib v3.7.2, https://matplotlib.org/</dc:title>
     </cc:Agent>
    </dc:creator>
   </cc:Work>
  </rdf:RDF>
 </metadata>
 <defs>
  <style type="text/css">*{stroke-linejoin: round; stroke-linecap: butt}</style>
 </defs>
 <g id="figure_1">
  <g id="patch_1">
   <path d="M 0 576 
L 720 576 
L 720 0 
L 0 0 
z
" style="fill: #ffffff"/>
  </g>
  <g id="axes_1">
   <g id="patch_2">
    <path d="M 90 512.64 
L 343.636364 512.64 
L 343.636364 69.12 
L 90 69.12 
z
" style="fill: #ffffff"/>
   </g>
   <g id="matplotlib.axis_1">
    <g id="xtick_1">
     <g id="text_1">
      <!-- 40 -->
      <g style="fill: #262626" transform="translate(121.295507 530.013594) scale(0.11 -0.11)">
       <defs>
        <path id="ArialMT-34" d="M 2069 0 
L 2069 1097 
L 81 1097 
L 81 1613 
L 2172 4581 
L 2631 4581 
L 2631 1613 
L 3250 1613 
L 3250 1097 
L 2631 1097 
L 2631 0 
L 2069 0 
z
M 2069 1613 
L 2069 3678 
L 634 1613 
L 2069 1613 
z
" transform="scale(0.015625)"/>
        <path id="ArialMT-30" d="M 266 2259 
Q 266 3072 433 3567 
Q 600 4063 929 4331 
Q 1259 4600 1759 4600 
Q 2128 4600 2406 4451 
Q 2684 4303 2865 4023 
Q 3047 3744 3150 3342 
Q 3253 2941 3253 2259 
Q 3253 1453 3087 958 
Q 2922 463 2592 192 
Q 2263 -78 1759 -78 
Q 1097 -78 719 397 
Q 266 969 266 2259 
z
M 844 2259 
Q 844 1131 1108 757 
Q 1372 384 1759 384 
Q 2147 384 2411 759 
Q 2675 1134 2675 2259 
Q 2675 3391 2411 3762 
Q 2147 4134 1753 4134 
Q 1366 4134 1134 3806 
Q 844 3388 844 2259 
z
" transform="scale(0.015625)"/>
       </defs>
       <use xlink:href="#ArialMT-34"/>
       <use xlink:href="#ArialMT-30" x="55.615234"/>
      </g>
     </g>
    </g>
    <g id="xtick_2">
     <g id="text_2">
      <!-- 45 -->
      <g style="fill: #262626" transform="translate(170.631701 530.013594) scale(0.11 -0.11)">
       <defs>
        <path id="ArialMT-35" d="M 266 1200 
L 856 1250 
Q 922 819 1161 601 
Q 1400 384 1738 384 
Q 2144 384 2425 690 
Q 2706 997 2706 1503 
Q 2706 1984 2436 2262 
Q 2166 2541 1728 2541 
Q 1456 2541 1237 2417 
Q 1019 2294 894 2097 
L 366 2166 
L 809 4519 
L 3088 4519 
L 3088 3981 
L 1259 3981 
L 1013 2750 
Q 1425 3038 1878 3038 
Q 2478 3038 2890 2622 
Q 3303 2206 3303 1553 
Q 3303 931 2941 478 
Q 2500 -78 1738 -78 
Q 1113 -78 717 272 
Q 322 622 266 1200 
z
" transform="scale(0.015625)"/>
       </defs>
       <use xlink:href="#ArialMT-34"/>
       <use xlink:href="#ArialMT-35" x="55.615234"/>
      </g>
     </g>
    </g>
    <g id="xtick_3">
     <g id="text_3">
      <!-- 50 -->
      <g style="fill: #262626" transform="translate(219.967895 530.013594) scale(0.11 -0.11)">
       <use xlink:href="#ArialMT-35"/>
       <use xlink:href="#ArialMT-30" x="55.615234"/>
      </g>
     </g>
    </g>
    <g id="xtick_4">
     <g id="text_4">
      <!-- 55 -->
      <g style="fill: #262626" transform="translate(269.304088 530.013594) scale(0.11 -0.11)">
       <use xlink:href="#ArialMT-35"/>
       <use xlink:href="#ArialMT-35" x="55.615234"/>
      </g>
     </g>
    </g>
    <g id="xtick_5">
     <g id="text_5">
      <!-- 60 -->
      <g style="fill: #262626" transform="translate(318.640282 530.013594) scale(0.11 -0.11)">
       <defs>
        <path id="ArialMT-36" d="M 3184 3459 
L 2625 3416 
Q 2550 3747 2413 3897 
Q 2184 4138 1850 4138 
Q 1581 4138 1378 3988 
Q 1113 3794 959 3422 
Q 806 3050 800 2363 
Q 1003 2672 1297 2822 
Q 1591 2972 1913 2972 
Q 2475 2972 2870 2558 
Q 3266 2144 3266 1488 
Q 3266 1056 3080 686 
Q 2894 316 2569 119 
Q 2244 -78 1831 -78 
Q 1128 -78 684 439 
Q 241 956 241 2144 
Q 241 3472 731 4075 
Q 1159 4600 1884 4600 
Q 2425 4600 2770 4297 
Q 3116 3994 3184 3459 
z
M 888 1484 
Q 888 1194 1011 928 
Q 1134 663 1356 523 
Q 1578 384 1822 384 
Q 2178 384 2434 671 
Q 2691 959 2691 1453 
Q 2691 1928 2437 2201 
Q 2184 2475 1800 2475 
Q 1419 2475 1153 2201 
Q 888 1928 888 1484 
z
" transform="scale(0.015625)"/>
       </defs>
       <use xlink:href="#ArialMT-36"/>
       <use xlink:href="#ArialMT-30" x="55.615234"/>
      </g>
     </g>
    </g>
    <g id="text_6">
     <!--  MTU length (cm) -->
     <g style="fill: #262626" transform="translate(170.482244 544.935469) scale(0.12 -0.12)">
      <defs>
       <path id="ArialMT-20" transform="scale(0.015625)"/>
       <path id="ArialMT-4d" d="M 475 0 
L 475 4581 
L 1388 4581 
L 2472 1338 
Q 2622 884 2691 659 
Q 2769 909 2934 1394 
L 4031 4581 
L 4847 4581 
L 4847 0 
L 4263 0 
L 4263 3834 
L 2931 0 
L 2384 0 
L 1059 3900 
L 1059 0 
L 475 0 
z
" transform="scale(0.015625)"/>
       <path id="ArialMT-54" d="M 1659 0 
L 1659 4041 
L 150 4041 
L 150 4581 
L 3781 4581 
L 3781 4041 
L 2266 4041 
L 2266 0 
L 1659 0 
z
" transform="scale(0.015625)"/>
       <path id="ArialMT-55" d="M 3500 4581 
L 4106 4581 
L 4106 1934 
Q 4106 1244 3950 837 
Q 3794 431 3386 176 
Q 2978 -78 2316 -78 
Q 1672 -78 1262 144 
Q 853 366 678 786 
Q 503 1206 503 1934 
L 503 4581 
L 1109 4581 
L 1109 1938 
Q 1109 1341 1220 1058 
Q 1331 775 1601 622 
Q 1872 469 2263 469 
Q 2931 469 3215 772 
Q 3500 1075 3500 1938 
L 3500 4581 
z
" transform="scale(0.015625)"/>
       <path id="ArialMT-6c" d="M 409 0 
L 409 4581 
L 972 4581 
L 972 0 
L 409 0 
z
" transform="scale(0.015625)"/>
       <path id="ArialMT-65" d="M 2694 1069 
L 3275 997 
Q 3138 488 2766 206 
Q 2394 -75 1816 -75 
Q 1088 -75 661 373 
Q 234 822 234 1631 
Q 234 2469 665 2931 
Q 1097 3394 1784 3394 
Q 2450 3394 2872 2941 
Q 3294 2488 3294 1666 
Q 3294 1616 3291 1516 
L 816 1516 
Q 847 969 1125 678 
Q 1403 388 1819 388 
Q 2128 388 2347 550 
Q 2566 713 2694 1069 
z
M 847 1978 
L 2700 1978 
Q 2663 2397 2488 2606 
Q 2219 2931 1791 2931 
Q 1403 2931 1139 2672 
Q 875 2413 847 1978 
z
" transform="scale(0.015625)"/>
       <path id="ArialMT-6e" d="M 422 0 
L 422 3319 
L 928 3319 
L 928 2847 
Q 1294 3394 1984 3394 
Q 2284 3394 2536 3286 
Q 2788 3178 2913 3003 
Q 3038 2828 3088 2588 
Q 3119 2431 3119 2041 
L 3119 0 
L 2556 0 
L 2556 2019 
Q 2556 2363 2490 2533 
Q 2425 2703 2258 2804 
Q 2091 2906 1866 2906 
Q 1506 2906 1245 2678 
Q 984 2450 984 1813 
L 984 0 
L 422 0 
z
" transform="scale(0.015625)"/>
       <path id="ArialMT-67" d="M 319 -275 
L 866 -356 
Q 900 -609 1056 -725 
Q 1266 -881 1628 -881 
Q 2019 -881 2231 -725 
Q 2444 -569 2519 -288 
Q 2563 -116 2559 434 
Q 2191 0 1641 0 
Q 956 0 581 494 
Q 206 988 206 1678 
Q 206 2153 378 2554 
Q 550 2956 876 3175 
Q 1203 3394 1644 3394 
Q 2231 3394 2613 2919 
L 2613 3319 
L 3131 3319 
L 3131 450 
Q 3131 -325 2973 -648 
Q 2816 -972 2473 -1159 
Q 2131 -1347 1631 -1347 
Q 1038 -1347 672 -1080 
Q 306 -813 319 -275 
z
M 784 1719 
Q 784 1066 1043 766 
Q 1303 466 1694 466 
Q 2081 466 2343 764 
Q 2606 1063 2606 1700 
Q 2606 2309 2336 2618 
Q 2066 2928 1684 2928 
Q 1309 2928 1046 2623 
Q 784 2319 784 1719 
z
" transform="scale(0.015625)"/>
       <path id="ArialMT-74" d="M 1650 503 
L 1731 6 
Q 1494 -44 1306 -44 
Q 1000 -44 831 53 
Q 663 150 594 308 
Q 525 466 525 972 
L 525 2881 
L 113 2881 
L 113 3319 
L 525 3319 
L 525 4141 
L 1084 4478 
L 1084 3319 
L 1650 3319 
L 1650 2881 
L 1084 2881 
L 1084 941 
Q 1084 700 1114 631 
Q 1144 563 1211 522 
Q 1278 481 1403 481 
Q 1497 481 1650 503 
z
" transform="scale(0.015625)"/>
       <path id="ArialMT-68" d="M 422 0 
L 422 4581 
L 984 4581 
L 984 2938 
Q 1378 3394 1978 3394 
Q 2347 3394 2619 3248 
Q 2891 3103 3008 2847 
Q 3125 2591 3125 2103 
L 3125 0 
L 2563 0 
L 2563 2103 
Q 2563 2525 2380 2717 
Q 2197 2909 1863 2909 
Q 1613 2909 1392 2779 
Q 1172 2650 1078 2428 
Q 984 2206 984 1816 
L 984 0 
L 422 0 
z
" transform="scale(0.015625)"/>
       <path id="ArialMT-28" d="M 1497 -1347 
Q 1031 -759 709 28 
Q 388 816 388 1659 
Q 388 2403 628 3084 
Q 909 3875 1497 4659 
L 1900 4659 
Q 1522 4009 1400 3731 
Q 1209 3300 1100 2831 
Q 966 2247 966 1656 
Q 966 153 1900 -1347 
L 1497 -1347 
z
" transform="scale(0.015625)"/>
       <path id="ArialMT-63" d="M 2588 1216 
L 3141 1144 
Q 3050 572 2676 248 
Q 2303 -75 1759 -75 
Q 1078 -75 664 370 
Q 250 816 250 1647 
Q 250 2184 428 2587 
Q 606 2991 970 3192 
Q 1334 3394 1763 3394 
Q 2303 3394 2647 3120 
Q 2991 2847 3088 2344 
L 2541 2259 
Q 2463 2594 2264 2762 
Q 2066 2931 1784 2931 
Q 1359 2931 1093 2626 
Q 828 2322 828 1663 
Q 828 994 1084 691 
Q 1341 388 1753 388 
Q 2084 388 2306 591 
Q 2528 794 2588 1216 
z
" transform="scale(0.015625)"/>
       <path id="ArialMT-6d" d="M 422 0 
L 422 3319 
L 925 3319 
L 925 2853 
Q 1081 3097 1340 3245 
Q 1600 3394 1931 3394 
Q 2300 3394 2536 3241 
Q 2772 3088 2869 2813 
Q 3263 3394 3894 3394 
Q 4388 3394 4653 3120 
Q 4919 2847 4919 2278 
L 4919 0 
L 4359 0 
L 4359 2091 
Q 4359 2428 4304 2576 
Q 4250 2725 4106 2815 
Q 3963 2906 3769 2906 
Q 3419 2906 3187 2673 
Q 2956 2441 2956 1928 
L 2956 0 
L 2394 0 
L 2394 2156 
Q 2394 2531 2256 2718 
Q 2119 2906 1806 2906 
Q 1569 2906 1367 2781 
Q 1166 2656 1075 2415 
Q 984 2175 984 1722 
L 984 0 
L 422 0 
z
" transform="scale(0.015625)"/>
       <path id="ArialMT-29" d="M 791 -1347 
L 388 -1347 
Q 1322 153 1322 1656 
Q 1322 2244 1188 2822 
Q 1081 3291 891 3722 
Q 769 4003 388 4659 
L 791 4659 
Q 1378 3875 1659 3084 
Q 1900 2403 1900 1659 
Q 1900 816 1576 28 
Q 1253 -759 791 -1347 
z
" transform="scale(0.015625)"/>
      </defs>
      <use xlink:href="#ArialMT-20"/>
      <use xlink:href="#ArialMT-4d" x="27.783203"/>
      <use xlink:href="#ArialMT-54" x="111.083984"/>
      <use xlink:href="#ArialMT-55" x="172.167969"/>
      <use xlink:href="#ArialMT-20" x="244.384766"/>
      <use xlink:href="#ArialMT-6c" x="272.167969"/>
      <use xlink:href="#ArialMT-65" x="294.384766"/>
      <use xlink:href="#ArialMT-6e" x="350"/>
      <use xlink:href="#ArialMT-67" x="405.615234"/>
      <use xlink:href="#ArialMT-74" x="461.230469"/>
      <use xlink:href="#ArialMT-68" x="489.013672"/>
      <use xlink:href="#ArialMT-20" x="544.628906"/>
      <use xlink:href="#ArialMT-28" x="572.412109"/>
      <use xlink:href="#ArialMT-63" x="605.712891"/>
      <use xlink:href="#ArialMT-6d" x="655.712891"/>
      <use xlink:href="#ArialMT-29" x="739.013672"/>
     </g>
    </g>
   </g>
   <g id="matplotlib.axis_2">
    <g id="ytick_1">
     <g id="text_7">
      <!-- 0 -->
      <g style="fill: #262626" transform="translate(74.382969 516.576797) scale(0.11 -0.11)">
       <use xlink:href="#ArialMT-30"/>
      </g>
     </g>
    </g>
    <g id="ytick_2">
     <g id="text_8">
      <!-- 250 -->
      <g style="fill: #262626" transform="translate(62.148906 456.721233) scale(0.11 -0.11)">
       <defs>
        <path id="ArialMT-32" d="M 3222 541 
L 3222 0 
L 194 0 
Q 188 203 259 391 
Q 375 700 629 1000 
Q 884 1300 1366 1694 
Q 2113 2306 2375 2664 
Q 2638 3022 2638 3341 
Q 2638 3675 2398 3904 
Q 2159 4134 1775 4134 
Q 1369 4134 1125 3890 
Q 881 3647 878 3216 
L 300 3275 
Q 359 3922 746 4261 
Q 1134 4600 1788 4600 
Q 2447 4600 2831 4234 
Q 3216 3869 3216 3328 
Q 3216 3053 3103 2787 
Q 2991 2522 2730 2228 
Q 2469 1934 1863 1422 
Q 1356 997 1212 845 
Q 1069 694 975 541 
L 3222 541 
z
" transform="scale(0.015625)"/>
       </defs>
       <use xlink:href="#ArialMT-32"/>
       <use xlink:href="#ArialMT-35" x="55.615234"/>
       <use xlink:href="#ArialMT-30" x="111.230469"/>
      </g>
     </g>
    </g>
    <g id="ytick_3">
     <g id="text_9">
      <!-- 500 -->
      <g style="fill: #262626" transform="translate(62.148906 396.86567) scale(0.11 -0.11)">
       <use xlink:href="#ArialMT-35"/>
       <use xlink:href="#ArialMT-30" x="55.615234"/>
       <use xlink:href="#ArialMT-30" x="111.230469"/>
      </g>
     </g>
    </g>
    <g id="ytick_4">
     <g id="text_10">
      <!-- 750 -->
      <g style="fill: #262626" transform="translate(62.148906 337.010106) scale(0.11 -0.11)">
       <defs>
        <path id="ArialMT-37" d="M 303 3981 
L 303 4522 
L 3269 4522 
L 3269 4084 
Q 2831 3619 2401 2847 
Q 1972 2075 1738 1259 
Q 1569 684 1522 0 
L 944 0 
Q 953 541 1156 1306 
Q 1359 2072 1739 2783 
Q 2119 3494 2547 3981 
L 303 3981 
z
" transform="scale(0.015625)"/>
       </defs>
       <use xlink:href="#ArialMT-37"/>
       <use xlink:href="#ArialMT-35" x="55.615234"/>
       <use xlink:href="#ArialMT-30" x="111.230469"/>
      </g>
     </g>
    </g>
    <g id="ytick_5">
     <g id="text_11">
      <!-- 1000 -->
      <g style="fill: #262626" transform="translate(56.031875 277.154543) scale(0.11 -0.11)">
       <defs>
        <path id="ArialMT-31" d="M 2384 0 
L 1822 0 
L 1822 3584 
Q 1619 3391 1289 3197 
Q 959 3003 697 2906 
L 697 3450 
Q 1169 3672 1522 3987 
Q 1875 4303 2022 4600 
L 2384 4600 
L 2384 0 
z
" transform="scale(0.015625)"/>
       </defs>
       <use xlink:href="#ArialMT-31"/>
       <use xlink:href="#ArialMT-30" x="55.615234"/>
       <use xlink:href="#ArialMT-30" x="111.230469"/>
       <use xlink:href="#ArialMT-30" x="166.845703"/>
      </g>
     </g>
    </g>
    <g id="ytick_6">
     <g id="text_12">
      <!-- 1250 -->
      <g style="fill: #262626" transform="translate(56.031875 217.29898) scale(0.11 -0.11)">
       <use xlink:href="#ArialMT-31"/>
       <use xlink:href="#ArialMT-32" x="55.615234"/>
       <use xlink:href="#ArialMT-35" x="111.230469"/>
       <use xlink:href="#ArialMT-30" x="166.845703"/>
      </g>
     </g>
    </g>
    <g id="ytick_7">
     <g id="text_13">
      <!-- 1500 -->
      <g style="fill: #262626" transform="translate(56.031875 157.443416) scale(0.11 -0.11)">
       <use xlink:href="#ArialMT-31"/>
       <use xlink:href="#ArialMT-35" x="55.615234"/>
       <use xlink:href="#ArialMT-30" x="111.230469"/>
       <use xlink:href="#ArialMT-30" x="166.845703"/>
      </g>
     </g>
    </g>
    <g id="ytick_8">
     <g id="text_14">
      <!-- 1750 -->
      <g style="fill: #262626" transform="translate(56.031875 97.587853) scale(0.11 -0.11)">
       <use xlink:href="#ArialMT-31"/>
       <use xlink:href="#ArialMT-37" x="55.615234"/>
       <use xlink:href="#ArialMT-35" x="111.230469"/>
       <use xlink:href="#ArialMT-30" x="166.845703"/>
      </g>
     </g>
    </g>
    <g id="text_15">
     <!-- Muscle forces (N) -->
     <g style="fill: #262626" transform="translate(49.50625 337.884375) rotate(-90) scale(0.12 -0.12)">
      <defs>
       <path id="ArialMT-75" d="M 2597 0 
L 2597 488 
Q 2209 -75 1544 -75 
Q 1250 -75 995 37 
Q 741 150 617 320 
Q 494 491 444 738 
Q 409 903 409 1263 
L 409 3319 
L 972 3319 
L 972 1478 
Q 972 1038 1006 884 
Q 1059 663 1231 536 
Q 1403 409 1656 409 
Q 1909 409 2131 539 
Q 2353 669 2445 892 
Q 2538 1116 2538 1541 
L 2538 3319 
L 3100 3319 
L 3100 0 
L 2597 0 
z
" transform="scale(0.015625)"/>
       <path id="ArialMT-73" d="M 197 991 
L 753 1078 
Q 800 744 1014 566 
Q 1228 388 1613 388 
Q 2000 388 2187 545 
Q 2375 703 2375 916 
Q 2375 1106 2209 1216 
Q 2094 1291 1634 1406 
Q 1016 1563 777 1677 
Q 538 1791 414 1992 
Q 291 2194 291 2438 
Q 291 2659 392 2848 
Q 494 3038 669 3163 
Q 800 3259 1026 3326 
Q 1253 3394 1513 3394 
Q 1903 3394 2198 3281 
Q 2494 3169 2634 2976 
Q 2775 2784 2828 2463 
L 2278 2388 
Q 2241 2644 2061 2787 
Q 1881 2931 1553 2931 
Q 1166 2931 1000 2803 
Q 834 2675 834 2503 
Q 834 2394 903 2306 
Q 972 2216 1119 2156 
Q 1203 2125 1616 2013 
Q 2213 1853 2448 1751 
Q 2684 1650 2818 1456 
Q 2953 1263 2953 975 
Q 2953 694 2789 445 
Q 2625 197 2315 61 
Q 2006 -75 1616 -75 
Q 969 -75 630 194 
Q 291 463 197 991 
z
" transform="scale(0.015625)"/>
       <path id="ArialMT-66" d="M 556 0 
L 556 2881 
L 59 2881 
L 59 3319 
L 556 3319 
L 556 3672 
Q 556 4006 616 4169 
Q 697 4388 901 4523 
Q 1106 4659 1475 4659 
Q 1713 4659 2000 4603 
L 1916 4113 
Q 1741 4144 1584 4144 
Q 1328 4144 1222 4034 
Q 1116 3925 1116 3625 
L 1116 3319 
L 1763 3319 
L 1763 2881 
L 1116 2881 
L 1116 0 
L 556 0 
z
" transform="scale(0.015625)"/>
       <path id="ArialMT-6f" d="M 213 1659 
Q 213 2581 725 3025 
Q 1153 3394 1769 3394 
Q 2453 3394 2887 2945 
Q 3322 2497 3322 1706 
Q 3322 1066 3130 698 
Q 2938 331 2570 128 
Q 2203 -75 1769 -75 
Q 1072 -75 642 372 
Q 213 819 213 1659 
z
M 791 1659 
Q 791 1022 1069 705 
Q 1347 388 1769 388 
Q 2188 388 2466 706 
Q 2744 1025 2744 1678 
Q 2744 2294 2464 2611 
Q 2184 2928 1769 2928 
Q 1347 2928 1069 2612 
Q 791 2297 791 1659 
z
" transform="scale(0.015625)"/>
       <path id="ArialMT-72" d="M 416 0 
L 416 3319 
L 922 3319 
L 922 2816 
Q 1116 3169 1280 3281 
Q 1444 3394 1641 3394 
Q 1925 3394 2219 3213 
L 2025 2691 
Q 1819 2813 1613 2813 
Q 1428 2813 1281 2702 
Q 1134 2591 1072 2394 
Q 978 2094 978 1738 
L 978 0 
L 416 0 
z
" transform="scale(0.015625)"/>
       <path id="ArialMT-4e" d="M 488 0 
L 488 4581 
L 1109 4581 
L 3516 984 
L 3516 4581 
L 4097 4581 
L 4097 0 
L 3475 0 
L 1069 3600 
L 1069 0 
L 488 0 
z
" transform="scale(0.015625)"/>
      </defs>
      <use xlink:href="#ArialMT-4d"/>
      <use xlink:href="#ArialMT-75" x="83.300781"/>
      <use xlink:href="#ArialMT-73" x="138.916016"/>
      <use xlink:href="#ArialMT-63" x="188.916016"/>
      <use xlink:href="#ArialMT-6c" x="238.916016"/>
      <use xlink:href="#ArialMT-65" x="261.132812"/>
      <use xlink:href="#ArialMT-20" x="316.748047"/>
      <use xlink:href="#ArialMT-66" x="344.53125"/>
      <use xlink:href="#ArialMT-6f" x="372.314453"/>
      <use xlink:href="#ArialMT-72" x="427.929688"/>
      <use xlink:href="#ArialMT-63" x="461.230469"/>
      <use xlink:href="#ArialMT-65" x="511.230469"/>
      <use xlink:href="#ArialMT-73" x="566.845703"/>
      <use xlink:href="#ArialMT-20" x="616.845703"/>
      <use xlink:href="#ArialMT-28" x="644.628906"/>
      <use xlink:href="#ArialMT-4e" x="677.929688"/>
      <use xlink:href="#ArialMT-29" x="750.146484"/>
     </g>
    </g>
   </g>
   <g id="line2d_1">
    <path d="M 108.804053 464.038944 
L 125.762654 429.890116 
L 137.917792 404.100819 
L 153.965514 366.888862 
L 166.690639 336.012614 
L 183.684644 296.084452 
L 197.97585 267.057592 
L 211.578486 246.42806 
L 226.980268 234.579757 
L 240.933307 233.328158 
L 255.678124 239.244483 
L 270.442826 246.043854 
L 285.128986 238.482127 
L 300.366483 191.720957 
L 314.545251 90.24 
" clip-path="url(#pe9024a975c)" style="fill: none; stroke: #0000ff; stroke-width: 1.5; stroke-linecap: round"/>
    <defs>
     <path id="mf79a8bacfb" d="M -3 3 
L 3 3 
L 3 -3 
L -3 -3 
z
" style="stroke: #0000ff; stroke-linejoin: miter"/>
    </defs>
    <g clip-path="url(#pe9024a975c)">
     <use xlink:href="#mf79a8bacfb" x="108.804053" y="464.038944" style="fill: #0000ff; stroke: #0000ff; stroke-linejoin: miter"/>
     <use xlink:href="#mf79a8bacfb" x="125.762654" y="429.890116" style="fill: #0000ff; stroke: #0000ff; stroke-linejoin: miter"/>
     <use xlink:href="#mf79a8bacfb" x="137.917792" y="404.100819" style="fill: #0000ff; stroke: #0000ff; stroke-linejoin: miter"/>
     <use xlink:href="#mf79a8bacfb" x="153.965514" y="366.888862" style="fill: #0000ff; stroke: #0000ff; stroke-linejoin: miter"/>
     <use xlink:href="#mf79a8bacfb" x="166.690639" y="336.012614" style="fill: #0000ff; stroke: #0000ff; stroke-linejoin: miter"/>
     <use xlink:href="#mf79a8bacfb" x="183.684644" y="296.084452" style="fill: #0000ff; stroke: #0000ff; stroke-linejoin: miter"/>
     <use xlink:href="#mf79a8bacfb" x="197.97585" y="267.057592" style="fill: #0000ff; stroke: #0000ff; stroke-linejoin: miter"/>
     <use xlink:href="#mf79a8bacfb" x="211.578486" y="246.42806" style="fill: #0000ff; stroke: #0000ff; stroke-linejoin: miter"/>
     <use xlink:href="#mf79a8bacfb" x="226.980268" y="234.579757" style="fill: #0000ff; stroke: #0000ff; stroke-linejoin: miter"/>
     <use xlink:href="#mf79a8bacfb" x="240.933307" y="233.328158" style="fill: #0000ff; stroke: #0000ff; stroke-linejoin: miter"/>
     <use xlink:href="#mf79a8bacfb" x="255.678124" y="239.244483" style="fill: #0000ff; stroke: #0000ff; stroke-linejoin: miter"/>
     <use xlink:href="#mf79a8bacfb" x="270.442826" y="246.043854" style="fill: #0000ff; stroke: #0000ff; stroke-linejoin: miter"/>
     <use xlink:href="#mf79a8bacfb" x="285.128986" y="238.482127" style="fill: #0000ff; stroke: #0000ff; stroke-linejoin: miter"/>
     <use xlink:href="#mf79a8bacfb" x="300.366483" y="191.720957" style="fill: #0000ff; stroke: #0000ff; stroke-linejoin: miter"/>
     <use xlink:href="#mf79a8bacfb" x="314.545251" y="90.24" style="fill: #0000ff; stroke: #0000ff; stroke-linejoin: miter"/>
    </g>
   </g>
   <g id="line2d_2">
    <path d="M 108.804053 512.64 
L 125.762654 512.64 
L 137.917792 512.64 
L 153.965514 512.64 
L 166.690639 512.64 
L 183.684644 512.64 
L 197.97585 512.64 
L 211.578486 512.64 
L 226.980268 512.64 
L 240.933307 509.487785 
L 255.678124 500.04753 
L 270.442826 479.870068 
L 285.128986 438.568376 
L 300.366483 355.749697 
L 314.545251 224.442476 
" clip-path="url(#pe9024a975c)" style="fill: none; stroke-dasharray: 5.55,2.4; stroke-dashoffset: 0; stroke: #0000ff; stroke-width: 1.5"/>
    <defs>
     <path id="mbac93e47f0" d="M 0 3 
C 0.795609 3 1.55874 2.683901 2.12132 2.12132 
C 2.683901 1.55874 3 0.795609 3 0 
C 3 -0.795609 2.683901 -1.55874 2.12132 -2.12132 
C 1.55874 -2.683901 0.795609 -3 0 -3 
C -0.795609 -3 -1.55874 -2.683901 -2.12132 -2.12132 
C -2.683901 -1.55874 -3 -0.795609 -3 0 
C -3 0.795609 -2.683901 1.55874 -2.12132 2.12132 
C -1.55874 2.683901 -0.795609 3 0 3 
z
" style="stroke: #0000ff"/>
    </defs>
    <g clip-path="url(#pe9024a975c)">
     <use xlink:href="#mbac93e47f0" x="108.804053" y="512.64" style="fill: #0000ff; stroke: #0000ff"/>
     <use xlink:href="#mbac93e47f0" x="125.762654" y="512.64" style="fill: #0000ff; stroke: #0000ff"/>
     <use xlink:href="#mbac93e47f0" x="137.917792" y="512.64" style="fill: #0000ff; stroke: #0000ff"/>
     <use xlink:href="#mbac93e47f0" x="153.965514" y="512.64" style="fill: #0000ff; stroke: #0000ff"/>
     <use xlink:href="#mbac93e47f0" x="166.690639" y="512.64" style="fill: #0000ff; stroke: #0000ff"/>
     <use xlink:href="#mbac93e47f0" x="183.684644" y="512.64" style="fill: #0000ff; stroke: #0000ff"/>
     <use xlink:href="#mbac93e47f0" x="197.97585" y="512.64" style="fill: #0000ff; stroke: #0000ff"/>
     <use xlink:href="#mbac93e47f0" x="211.578486" y="512.64" style="fill: #0000ff; stroke: #0000ff"/>
     <use xlink:href="#mbac93e47f0" x="226.980268" y="512.64" style="fill: #0000ff; stroke: #0000ff"/>
     <use xlink:href="#mbac93e47f0" x="240.933307" y="509.487785" style="fill: #0000ff; stroke: #0000ff"/>
     <use xlink:href="#mbac93e47f0" x="255.678124" y="500.04753" style="fill: #0000ff; stroke: #0000ff"/>
     <use xlink:href="#mbac93e47f0" x="270.442826" y="479.870068" style="fill: #0000ff; stroke: #0000ff"/>
     <use xlink:href="#mbac93e47f0" x="285.128986" y="438.568376" style="fill: #0000ff; stroke: #0000ff"/>
     <use xlink:href="#mbac93e47f0" x="300.366483" y="355.749697" style="fill: #0000ff; stroke: #0000ff"/>
     <use xlink:href="#mbac93e47f0" x="314.545251" y="224.442476" style="fill: #0000ff; stroke: #0000ff"/>
    </g>
   </g>
   <g id="patch_3">
    <path d="M 90 512.64 
L 90 69.12 
" style="fill: none; stroke: #262626; stroke-width: 1.25; stroke-linejoin: miter; stroke-linecap: square"/>
   </g>
   <g id="patch_4">
    <path d="M 343.636364 512.64 
L 343.636364 69.12 
" style="fill: none; stroke: #262626; stroke-width: 1.25; stroke-linejoin: miter; stroke-linecap: square"/>
   </g>
   <g id="patch_5">
    <path d="M 90 512.64 
L 343.636364 512.64 
" style="fill: none; stroke: #262626; stroke-width: 1.25; stroke-linejoin: miter; stroke-linecap: square"/>
   </g>
   <g id="patch_6">
    <path d="M 90 69.12 
L 343.636364 69.12 
" style="fill: none; stroke: #262626; stroke-width: 1.25; stroke-linejoin: miter; stroke-linecap: square"/>
   </g>
   <g id="text_16">
    <!-- OSIM -->
    <g style="fill: #262626" transform="translate(201.484432 63.12) scale(0.12 -0.12)">
     <defs>
      <path id="ArialMT-4f" d="M 309 2231 
Q 309 3372 921 4017 
Q 1534 4663 2503 4663 
Q 3138 4663 3647 4359 
Q 4156 4056 4423 3514 
Q 4691 2972 4691 2284 
Q 4691 1588 4409 1038 
Q 4128 488 3612 205 
Q 3097 -78 2500 -78 
Q 1853 -78 1343 234 
Q 834 547 571 1087 
Q 309 1628 309 2231 
z
M 934 2222 
Q 934 1394 1379 917 
Q 1825 441 2497 441 
Q 3181 441 3623 922 
Q 4066 1403 4066 2288 
Q 4066 2847 3877 3264 
Q 3688 3681 3323 3911 
Q 2959 4141 2506 4141 
Q 1863 4141 1398 3698 
Q 934 3256 934 2222 
z
" transform="scale(0.015625)"/>
      <path id="ArialMT-53" d="M 288 1472 
L 859 1522 
Q 900 1178 1048 958 
Q 1197 738 1509 602 
Q 1822 466 2213 466 
Q 2559 466 2825 569 
Q 3091 672 3220 851 
Q 3350 1031 3350 1244 
Q 3350 1459 3225 1620 
Q 3100 1781 2813 1891 
Q 2628 1963 1997 2114 
Q 1366 2266 1113 2400 
Q 784 2572 623 2826 
Q 463 3081 463 3397 
Q 463 3744 659 4045 
Q 856 4347 1234 4503 
Q 1613 4659 2075 4659 
Q 2584 4659 2973 4495 
Q 3363 4331 3572 4012 
Q 3781 3694 3797 3291 
L 3216 3247 
Q 3169 3681 2898 3903 
Q 2628 4125 2100 4125 
Q 1550 4125 1298 3923 
Q 1047 3722 1047 3438 
Q 1047 3191 1225 3031 
Q 1400 2872 2139 2705 
Q 2878 2538 3153 2413 
Q 3553 2228 3743 1945 
Q 3934 1663 3934 1294 
Q 3934 928 3725 604 
Q 3516 281 3123 101 
Q 2731 -78 2241 -78 
Q 1619 -78 1198 103 
Q 778 284 539 648 
Q 300 1013 288 1472 
z
" transform="scale(0.015625)"/>
      <path id="ArialMT-49" d="M 597 0 
L 597 4581 
L 1203 4581 
L 1203 0 
L 597 0 
z
" transform="scale(0.015625)"/>
     </defs>
     <use xlink:href="#ArialMT-4f"/>
     <use xlink:href="#ArialMT-53" x="77.783203"/>
     <use xlink:href="#ArialMT-49" x="144.482422"/>
     <use xlink:href="#ArialMT-4d" x="172.265625"/>
    </g>
   </g>
  </g>
  <g id="axes_2">
   <g id="patch_7">
    <path d="M 394.363636 512.64 
L 648 512.64 
L 648 69.12 
L 394.363636 69.12 
z
" style="fill: #ffffff"/>
   </g>
   <g id="matplotlib.axis_3">
    <g id="xtick_6">
     <g id="text_17">
      <!-- 40 -->
      <g style="fill: #262626" transform="translate(425.659143 530.013594) scale(0.11 -0.11)">
       <use xlink:href="#ArialMT-34"/>
       <use xlink:href="#ArialMT-30" x="55.615234"/>
      </g>
     </g>
    </g>
    <g id="xtick_7">
     <g id="text_18">
      <!-- 45 -->
      <g style="fill: #262626" transform="translate(474.995337 530.013594) scale(0.11 -0.11)">
       <use xlink:href="#ArialMT-34"/>
       <use xlink:href="#ArialMT-35" x="55.615234"/>
      </g>
     </g>
    </g>
    <g id="xtick_8">
     <g id="text_19">
      <!-- 50 -->
      <g style="fill: #262626" transform="translate(524.331531 530.013594) scale(0.11 -0.11)">
       <use xlink:href="#ArialMT-35"/>
       <use xlink:href="#ArialMT-30" x="55.615234"/>
      </g>
     </g>
    </g>
    <g id="xtick_9">
     <g id="text_20">
      <!-- 55 -->
      <g style="fill: #262626" transform="translate(573.667725 530.013594) scale(0.11 -0.11)">
       <use xlink:href="#ArialMT-35"/>
       <use xlink:href="#ArialMT-35" x="55.615234"/>
      </g>
     </g>
    </g>
    <g id="xtick_10">
     <g id="text_21">
      <!-- 60 -->
      <g style="fill: #262626" transform="translate(623.003919 530.013594) scale(0.11 -0.11)">
       <use xlink:href="#ArialMT-36"/>
       <use xlink:href="#ArialMT-30" x="55.615234"/>
      </g>
     </g>
    </g>
    <g id="text_22">
     <!--  MTU length (cm) -->
     <g style="fill: #262626" transform="translate(474.845881 544.935469) scale(0.12 -0.12)">
      <use xlink:href="#ArialMT-20"/>
      <use xlink:href="#ArialMT-4d" x="27.783203"/>
      <use xlink:href="#ArialMT-54" x="111.083984"/>
      <use xlink:href="#ArialMT-55" x="172.167969"/>
      <use xlink:href="#ArialMT-20" x="244.384766"/>
      <use xlink:href="#ArialMT-6c" x="272.167969"/>
      <use xlink:href="#ArialMT-65" x="294.384766"/>
      <use xlink:href="#ArialMT-6e" x="350"/>
      <use xlink:href="#ArialMT-67" x="405.615234"/>
      <use xlink:href="#ArialMT-74" x="461.230469"/>
      <use xlink:href="#ArialMT-68" x="489.013672"/>
      <use xlink:href="#ArialMT-20" x="544.628906"/>
      <use xlink:href="#ArialMT-28" x="572.412109"/>
      <use xlink:href="#ArialMT-63" x="605.712891"/>
      <use xlink:href="#ArialMT-6d" x="655.712891"/>
      <use xlink:href="#ArialMT-29" x="739.013672"/>
     </g>
    </g>
   </g>
   <g id="matplotlib.axis_4">
    <g id="ytick_9">
     <g id="text_23">
      <!-- 0 -->
      <g style="fill: #262626" transform="translate(378.746605 516.576797) scale(0.11 -0.11)">
       <use xlink:href="#ArialMT-30"/>
      </g>
     </g>
    </g>
    <g id="ytick_10">
     <g id="text_24">
      <!-- 250 -->
      <g style="fill: #262626" transform="translate(366.512543 456.721233) scale(0.11 -0.11)">
       <use xlink:href="#ArialMT-32"/>
       <use xlink:href="#ArialMT-35" x="55.615234"/>
       <use xlink:href="#ArialMT-30" x="111.230469"/>
      </g>
     </g>
    </g>
    <g id="ytick_11">
     <g id="text_25">
      <!-- 500 -->
      <g style="fill: #262626" transform="translate(366.512543 396.86567) scale(0.11 -0.11)">
       <use xlink:href="#ArialMT-35"/>
       <use xlink:href="#ArialMT-30" x="55.615234"/>
       <use xlink:href="#ArialMT-30" x="111.230469"/>
      </g>
     </g>
    </g>
    <g id="ytick_12">
     <g id="text_26">
      <!-- 750 -->
      <g style="fill: #262626" transform="translate(366.512543 337.010106) scale(0.11 -0.11)">
       <use xlink:href="#ArialMT-37"/>
       <use xlink:href="#ArialMT-35" x="55.615234"/>
       <use xlink:href="#ArialMT-30" x="111.230469"/>
      </g>
     </g>
    </g>
    <g id="ytick_13">
     <g id="text_27">
      <!-- 1000 -->
      <g style="fill: #262626" transform="translate(360.395511 277.154543) scale(0.11 -0.11)">
       <use xlink:href="#ArialMT-31"/>
       <use xlink:href="#ArialMT-30" x="55.615234"/>
       <use xlink:href="#ArialMT-30" x="111.230469"/>
       <use xlink:href="#ArialMT-30" x="166.845703"/>
      </g>
     </g>
    </g>
    <g id="ytick_14">
     <g id="text_28">
      <!-- 1250 -->
      <g style="fill: #262626" transform="translate(360.395511 217.29898) scale(0.11 -0.11)">
       <use xlink:href="#ArialMT-31"/>
       <use xlink:href="#ArialMT-32" x="55.615234"/>
       <use xlink:href="#ArialMT-35" x="111.230469"/>
       <use xlink:href="#ArialMT-30" x="166.845703"/>
      </g>
     </g>
    </g>
    <g id="ytick_15">
     <g id="text_29">
      <!-- 1500 -->
      <g style="fill: #262626" transform="translate(360.395511 157.443416) scale(0.11 -0.11)">
       <use xlink:href="#ArialMT-31"/>
       <use xlink:href="#ArialMT-35" x="55.615234"/>
       <use xlink:href="#ArialMT-30" x="111.230469"/>
       <use xlink:href="#ArialMT-30" x="166.845703"/>
      </g>
     </g>
    </g>
    <g id="ytick_16">
     <g id="text_30">
      <!-- 1750 -->
      <g style="fill: #262626" transform="translate(360.395511 97.587853) scale(0.11 -0.11)">
       <use xlink:href="#ArialMT-31"/>
       <use xlink:href="#ArialMT-37" x="55.615234"/>
       <use xlink:href="#ArialMT-35" x="111.230469"/>
       <use xlink:href="#ArialMT-30" x="166.845703"/>
      </g>
     </g>
    </g>
    <g id="text_31">
     <!-- Muscle forces (N) -->
     <g style="fill: #262626" transform="translate(353.869886 337.884375) rotate(-90) scale(0.12 -0.12)">
      <use xlink:href="#ArialMT-4d"/>
      <use xlink:href="#ArialMT-75" x="83.300781"/>
      <use xlink:href="#ArialMT-73" x="138.916016"/>
      <use xlink:href="#ArialMT-63" x="188.916016"/>
      <use xlink:href="#ArialMT-6c" x="238.916016"/>
      <use xlink:href="#ArialMT-65" x="261.132812"/>
      <use xlink:href="#ArialMT-20" x="316.748047"/>
      <use xlink:href="#ArialMT-66" x="344.53125"/>
      <use xlink:href="#ArialMT-6f" x="372.314453"/>
      <use xlink:href="#ArialMT-72" x="427.929688"/>
      <use xlink:href="#ArialMT-63" x="461.230469"/>
      <use xlink:href="#ArialMT-65" x="511.230469"/>
      <use xlink:href="#ArialMT-73" x="566.845703"/>
      <use xlink:href="#ArialMT-20" x="616.845703"/>
      <use xlink:href="#ArialMT-28" x="644.628906"/>
      <use xlink:href="#ArialMT-4e" x="677.929688"/>
      <use xlink:href="#ArialMT-29" x="750.146484"/>
     </g>
    </g>
   </g>
   <g id="line2d_3">
    <path d="M 484.276104 406.492686 
L 487.243635 395.243952 
L 492.987973 372.5867 
L 495.5281 363.082942 
L 501.027426 343.929276 
L 501.100225 343.68877 
L 504.014987 334.339257 
L 538.113679 265.550852 
L 549.382058 259.258803 
L 560.851088 256.737703 
L 575.202824 242.708577 
L 585.305167 225.091998 
L 588.272699 218.701814 
L 606.388441 167.723569 
L 618.101929 123.805792 
" clip-path="url(#p95f959a3a3)" style="fill: none; stroke: #0000ff; stroke-width: 1.5; stroke-linecap: round"/>
    <g clip-path="url(#p95f959a3a3)">
     <use xlink:href="#mf79a8bacfb" x="484.276104" y="406.492686" style="fill: #0000ff; stroke: #0000ff; stroke-linejoin: miter"/>
     <use xlink:href="#mf79a8bacfb" x="487.243635" y="395.243952" style="fill: #0000ff; stroke: #0000ff; stroke-linejoin: miter"/>
     <use xlink:href="#mf79a8bacfb" x="492.987973" y="372.5867" style="fill: #0000ff; stroke: #0000ff; stroke-linejoin: miter"/>
     <use xlink:href="#mf79a8bacfb" x="495.5281" y="363.082942" style="fill: #0000ff; stroke: #0000ff; stroke-linejoin: miter"/>
     <use xlink:href="#mf79a8bacfb" x="501.027426" y="343.929276" style="fill: #0000ff; stroke: #0000ff; stroke-linejoin: miter"/>
     <use xlink:href="#mf79a8bacfb" x="501.100225" y="343.68877" style="fill: #0000ff; stroke: #0000ff; stroke-linejoin: miter"/>
     <use xlink:href="#mf79a8bacfb" x="504.014987" y="334.339257" style="fill: #0000ff; stroke: #0000ff; stroke-linejoin: miter"/>
     <use xlink:href="#mf79a8bacfb" x="538.113679" y="265.550852" style="fill: #0000ff; stroke: #0000ff; stroke-linejoin: miter"/>
     <use xlink:href="#mf79a8bacfb" x="549.382058" y="259.258803" style="fill: #0000ff; stroke: #0000ff; stroke-linejoin: miter"/>
     <use xlink:href="#mf79a8bacfb" x="560.851088" y="256.737703" style="fill: #0000ff; stroke: #0000ff; stroke-linejoin: miter"/>
     <use xlink:href="#mf79a8bacfb" x="575.202824" y="242.708577" style="fill: #0000ff; stroke: #0000ff; stroke-linejoin: miter"/>
     <use xlink:href="#mf79a8bacfb" x="585.305167" y="225.091998" style="fill: #0000ff; stroke: #0000ff; stroke-linejoin: miter"/>
     <use xlink:href="#mf79a8bacfb" x="588.272699" y="218.701814" style="fill: #0000ff; stroke: #0000ff; stroke-linejoin: miter"/>
     <use xlink:href="#mf79a8bacfb" x="606.388441" y="167.723569" style="fill: #0000ff; stroke: #0000ff; stroke-linejoin: miter"/>
     <use xlink:href="#mf79a8bacfb" x="618.101929" y="123.805792" style="fill: #0000ff; stroke: #0000ff; stroke-linejoin: miter"/>
    </g>
   </g>
   <g id="line2d_4">
    <path d="M 484.276104 511.578527 
L 487.243635 511.46604 
L 492.987973 511.239467 
L 495.5281 511.144429 
L 501.027426 510.952893 
L 501.100225 510.950488 
L 504.014987 510.856993 
L 538.113679 510.169109 
L 549.382058 510.106188 
L 560.851088 505.622747 
L 575.202824 477.340038 
L 585.305167 441.825025 
L 588.272699 428.942418 
L 606.388441 326.170304 
L 618.101929 238.163387 
" clip-path="url(#p95f959a3a3)" style="fill: none; stroke-dasharray: 5.55,2.4; stroke-dashoffset: 0; stroke: #0000ff; stroke-width: 1.5"/>
    <g clip-path="url(#p95f959a3a3)">
     <use xlink:href="#mbac93e47f0" x="484.276104" y="511.578527" style="fill: #0000ff; stroke: #0000ff"/>
     <use xlink:href="#mbac93e47f0" x="487.243635" y="511.46604" style="fill: #0000ff; stroke: #0000ff"/>
     <use xlink:href="#mbac93e47f0" x="492.987973" y="511.239467" style="fill: #0000ff; stroke: #0000ff"/>
     <use xlink:href="#mbac93e47f0" x="495.5281" y="511.144429" style="fill: #0000ff; stroke: #0000ff"/>
     <use xlink:href="#mbac93e47f0" x="501.027426" y="510.952893" style="fill: #0000ff; stroke: #0000ff"/>
     <use xlink:href="#mbac93e47f0" x="501.100225" y="510.950488" style="fill: #0000ff; stroke: #0000ff"/>
     <use xlink:href="#mbac93e47f0" x="504.014987" y="510.856993" style="fill: #0000ff; stroke: #0000ff"/>
     <use xlink:href="#mbac93e47f0" x="538.113679" y="510.169109" style="fill: #0000ff; stroke: #0000ff"/>
     <use xlink:href="#mbac93e47f0" x="549.382058" y="510.106188" style="fill: #0000ff; stroke: #0000ff"/>
     <use xlink:href="#mbac93e47f0" x="560.851088" y="505.622747" style="fill: #0000ff; stroke: #0000ff"/>
     <use xlink:href="#mbac93e47f0" x="575.202824" y="477.340038" style="fill: #0000ff; stroke: #0000ff"/>
     <use xlink:href="#mbac93e47f0" x="585.305167" y="441.825025" style="fill: #0000ff; stroke: #0000ff"/>
     <use xlink:href="#mbac93e47f0" x="588.272699" y="428.942418" style="fill: #0000ff; stroke: #0000ff"/>
     <use xlink:href="#mbac93e47f0" x="606.388441" y="326.170304" style="fill: #0000ff; stroke: #0000ff"/>
     <use xlink:href="#mbac93e47f0" x="618.101929" y="238.163387" style="fill: #0000ff; stroke: #0000ff"/>
    </g>
   </g>
   <g id="patch_8">
    <path d="M 394.363636 512.64 
L 394.363636 69.12 
" style="fill: none; stroke: #262626; stroke-width: 1.25; stroke-linejoin: miter; stroke-linecap: square"/>
   </g>
   <g id="patch_9">
    <path d="M 648 512.64 
L 648 69.12 
" style="fill: none; stroke: #262626; stroke-width: 1.25; stroke-linejoin: miter; stroke-linecap: square"/>
   </g>
   <g id="patch_10">
    <path d="M 394.363636 512.64 
L 648 512.64 
" style="fill: none; stroke: #262626; stroke-width: 1.25; stroke-linejoin: miter; stroke-linecap: square"/>
   </g>
   <g id="patch_11">
    <path d="M 394.363636 69.12 
L 648 69.12 
" style="fill: none; stroke: #262626; stroke-width: 1.25; stroke-linejoin: miter; stroke-linecap: square"/>
   </g>
   <g id="text_32">
    <!-- MJC -->
    <g style="fill: #262626" transform="translate(508.850881 63.12) scale(0.12 -0.12)">
     <defs>
      <path id="ArialMT-4a" d="M 184 1300 
L 731 1375 
Q 753 850 928 656 
Q 1103 463 1413 463 
Q 1641 463 1806 567 
Q 1972 672 2034 851 
Q 2097 1031 2097 1425 
L 2097 4581 
L 2703 4581 
L 2703 1459 
Q 2703 884 2564 568 
Q 2425 253 2123 87 
Q 1822 -78 1416 -78 
Q 813 -78 492 269 
Q 172 616 184 1300 
z
" transform="scale(0.015625)"/>
      <path id="ArialMT-43" d="M 3763 1606 
L 4369 1453 
Q 4178 706 3683 314 
Q 3188 -78 2472 -78 
Q 1731 -78 1267 223 
Q 803 525 561 1097 
Q 319 1669 319 2325 
Q 319 3041 592 3573 
Q 866 4106 1370 4382 
Q 1875 4659 2481 4659 
Q 3169 4659 3637 4309 
Q 4106 3959 4291 3325 
L 3694 3184 
Q 3534 3684 3231 3912 
Q 2928 4141 2469 4141 
Q 1941 4141 1586 3887 
Q 1231 3634 1087 3207 
Q 944 2781 944 2328 
Q 944 1744 1114 1308 
Q 1284 872 1643 656 
Q 2003 441 2422 441 
Q 2931 441 3284 734 
Q 3638 1028 3763 1606 
z
" transform="scale(0.015625)"/>
     </defs>
     <use xlink:href="#ArialMT-4d"/>
     <use xlink:href="#ArialMT-4a" x="83.300781"/>
     <use xlink:href="#ArialMT-43" x="133.300781"/>
    </g>
   </g>
   <g id="legend_1">
    <g id="patch_12">
     <path d="M 539.075937 109.039688 
L 640.3 109.039688 
Q 642.5 109.039688 642.5 106.839688 
L 642.5 76.82 
Q 642.5 74.62 640.3 74.62 
L 539.075937 74.62 
Q 536.875937 74.62 536.875937 76.82 
L 536.875937 106.839688 
Q 536.875937 109.039688 539.075937 109.039688 
z
" style="fill: #ffffff; opacity: 0.8; stroke: #cccccc; stroke-linejoin: miter"/>
    </g>
    <g id="line2d_5">
     <path d="M 541.275937 83.043594 
L 552.275937 83.043594 
L 563.275937 83.043594 
" style="fill: none; stroke: #0000ff; stroke-width: 1.5; stroke-linecap: round"/>
     <g>
      <use xlink:href="#mf79a8bacfb" x="552.275937" y="83.043594" style="fill: #0000ff; stroke: #0000ff; stroke-linejoin: miter"/>
     </g>
    </g>
    <g id="text_33">
     <!-- Total force -->
     <g style="fill: #262626" transform="translate(572.075937 86.893594) scale(0.11 -0.11)">
      <defs>
       <path id="ArialMT-61" d="M 2588 409 
Q 2275 144 1986 34 
Q 1697 -75 1366 -75 
Q 819 -75 525 192 
Q 231 459 231 875 
Q 231 1119 342 1320 
Q 453 1522 633 1644 
Q 813 1766 1038 1828 
Q 1203 1872 1538 1913 
Q 2219 1994 2541 2106 
Q 2544 2222 2544 2253 
Q 2544 2597 2384 2738 
Q 2169 2928 1744 2928 
Q 1347 2928 1158 2789 
Q 969 2650 878 2297 
L 328 2372 
Q 403 2725 575 2942 
Q 747 3159 1072 3276 
Q 1397 3394 1825 3394 
Q 2250 3394 2515 3294 
Q 2781 3194 2906 3042 
Q 3031 2891 3081 2659 
Q 3109 2516 3109 2141 
L 3109 1391 
Q 3109 606 3145 398 
Q 3181 191 3288 0 
L 2700 0 
Q 2613 175 2588 409 
z
M 2541 1666 
Q 2234 1541 1622 1453 
Q 1275 1403 1131 1340 
Q 988 1278 909 1158 
Q 831 1038 831 891 
Q 831 666 1001 516 
Q 1172 366 1500 366 
Q 1825 366 2078 508 
Q 2331 650 2450 897 
Q 2541 1088 2541 1459 
L 2541 1666 
z
" transform="scale(0.015625)"/>
      </defs>
      <use xlink:href="#ArialMT-54"/>
      <use xlink:href="#ArialMT-6f" x="49.958984"/>
      <use xlink:href="#ArialMT-74" x="105.574219"/>
      <use xlink:href="#ArialMT-61" x="133.357422"/>
      <use xlink:href="#ArialMT-6c" x="188.972656"/>
      <use xlink:href="#ArialMT-20" x="211.189453"/>
      <use xlink:href="#ArialMT-66" x="238.972656"/>
      <use xlink:href="#ArialMT-6f" x="266.755859"/>
      <use xlink:href="#ArialMT-72" x="322.371094"/>
      <use xlink:href="#ArialMT-63" x="355.671875"/>
      <use xlink:href="#ArialMT-65" x="405.671875"/>
     </g>
    </g>
    <g id="line2d_6">
     <path d="M 541.275937 98.603438 
L 552.275937 98.603438 
L 563.275937 98.603438 
" style="fill: none; stroke-dasharray: 5.55,2.4; stroke-dashoffset: 0; stroke: #0000ff; stroke-width: 1.5"/>
     <g>
      <use xlink:href="#mbac93e47f0" x="552.275937" y="98.603438" style="fill: #0000ff; stroke: #0000ff"/>
     </g>
    </g>
    <g id="text_34">
     <!-- Passive force -->
     <g style="fill: #262626" transform="translate(572.075937 102.453438) scale(0.11 -0.11)">
      <defs>
       <path id="ArialMT-50" d="M 494 0 
L 494 4581 
L 2222 4581 
Q 2678 4581 2919 4538 
Q 3256 4481 3484 4323 
Q 3713 4166 3852 3881 
Q 3991 3597 3991 3256 
Q 3991 2672 3619 2267 
Q 3247 1863 2275 1863 
L 1100 1863 
L 1100 0 
L 494 0 
z
M 1100 2403 
L 2284 2403 
Q 2872 2403 3119 2622 
Q 3366 2841 3366 3238 
Q 3366 3525 3220 3729 
Q 3075 3934 2838 4000 
Q 2684 4041 2272 4041 
L 1100 4041 
L 1100 2403 
z
" transform="scale(0.015625)"/>
       <path id="ArialMT-69" d="M 425 3934 
L 425 4581 
L 988 4581 
L 988 3934 
L 425 3934 
z
M 425 0 
L 425 3319 
L 988 3319 
L 988 0 
L 425 0 
z
" transform="scale(0.015625)"/>
       <path id="ArialMT-76" d="M 1344 0 
L 81 3319 
L 675 3319 
L 1388 1331 
Q 1503 1009 1600 663 
Q 1675 925 1809 1294 
L 2547 3319 
L 3125 3319 
L 1869 0 
L 1344 0 
z
" transform="scale(0.015625)"/>
      </defs>
      <use xlink:href="#ArialMT-50"/>
      <use xlink:href="#ArialMT-61" x="66.699219"/>
      <use xlink:href="#ArialMT-73" x="122.314453"/>
      <use xlink:href="#ArialMT-73" x="172.314453"/>
      <use xlink:href="#ArialMT-69" x="222.314453"/>
      <use xlink:href="#ArialMT-76" x="244.53125"/>
      <use xlink:href="#ArialMT-65" x="294.53125"/>
      <use xlink:href="#ArialMT-20" x="350.146484"/>
      <use xlink:href="#ArialMT-66" x="377.929688"/>
      <use xlink:href="#ArialMT-6f" x="405.712891"/>
      <use xlink:href="#ArialMT-72" x="461.328125"/>
      <use xlink:href="#ArialMT-63" x="494.628906"/>
      <use xlink:href="#ArialMT-65" x="544.628906"/>
     </g>
    </g>
   </g>
  </g>
  <g id="text_35">
   <!-- rect_fem_r -->
   <g style="fill: #262626" transform="translate(325.591875 22.00275) scale(0.144 -0.144)">
    <defs>
     <path id="ArialMT-5f" d="M -97 -1272 
L -97 -866 
L 3631 -866 
L 3631 -1272 
L -97 -1272 
z
" transform="scale(0.015625)"/>
    </defs>
    <use xlink:href="#ArialMT-72"/>
    <use xlink:href="#ArialMT-65" x="33.300781"/>
    <use xlink:href="#ArialMT-63" x="88.916016"/>
    <use xlink:href="#ArialMT-74" x="138.916016"/>
    <use xlink:href="#ArialMT-5f" x="166.699219"/>
    <use xlink:href="#ArialMT-66" x="222.314453"/>
    <use xlink:href="#ArialMT-65" x="250.097656"/>
    <use xlink:href="#ArialMT-6d" x="305.712891"/>
    <use xlink:href="#ArialMT-5f" x="389.013672"/>
    <use xlink:href="#ArialMT-72" x="444.628906"/>
   </g>
  </g>
 </g>
 <defs>
  <clipPath id="pe9024a975c">
   <rect x="90" y="69.12" width="253.636364" height="443.52"/>
  </clipPath>
  <clipPath id="p95f959a3a3">
   <rect x="394.363636" y="69.12" width="253.636364" height="443.52"/>
  </clipPath>
 </defs>
</svg>
